<svg version="1" xmlns="http://www.w3.org/2000/svg" width="346.667" height="346.667" viewBox="0 0 260.000000 260.000000"><path d="M8.4 1.4c-1.7.8-4.2 2.9-5.5 4.7L.5 9.5v120.7c0 119.7 0 120.7 2 123.4 1.1 1.5 3.6 3.5 5.5 4.5 3.3 1.8 8.5 1.9 121.8 1.9 129.9 0 122.7.3 127.3-6.1l2.4-3.4V129.8c0-119.7 0-120.7-2-123.4-1.1-1.5-3.6-3.5-5.5-4.5C248.7.1 243.5 0 130 0 32.7.1 10.9.3 8.4 1.4zm182.7 81c12 4.4 18.3 15.1 15.8 26.8-1.3 5.7-6.1 11.8-10.9 13.8-3.7 1.5-3.8 2.6-.5 3.4 3.5.9 10.5 7.4 12.2 11.3.7 1.8 1.3 5.4 1.3 8.1 0 10.2-4.2 16.7-13.8 21.4l-6.7 3.3-24.2.3-24.3.4V79.8l23.3.4c18.6.4 24.1.8 27.8 2.2zM87.2 142l9.7 29.1-5.6-.3-5.6-.3-2.1-6-2.1-6H59.6l-2 6.2-2 6.3h-5.3c-2.9 0-5.3-.3-5.3-.8 0-.4 4.3-13.4 9.6-29l9.7-28.2h13.2l9.7 29zm33.5 13.5c2.7 3.1 3.1 8.9.8 12.1-4.7 6.9-16.5 4.8-19-3.4-1-3.3 1.3-9 4.3-10.7 4.1-2.3 11.1-1.3 13.9 2z"/><path d="M156.2 106.2l.3 12.3H169c14.3-.1 18-1.3 20.7-6.9 2-4.3 1.1-9.9-2.1-13.1-3.4-3.4-8.7-4.5-20.9-4.5h-10.8l.3 12.2zM156 145.1v12.1l13.3-.4c14.5-.5 18-1.5 20.3-5.9 1.9-3.7 1.8-9.9-.2-12.8-2.9-4-7.3-5.1-20.9-5.1H156v12.1zM66.6 137.6c-2.1 6.3-3.6 11.8-3.3 12 .2.3 3.8.4 7.9.2l7.5-.3-3.4-11c-1.9-6.1-3.8-11.3-4.2-11.7-.4-.4-2.4 4.4-4.5 10.8z"/></svg>